<?xml version="1.0" encoding="UTF-8"?>
<svg width="31px" height="28px" viewBox="0 0 31 28" version="1.1" xmlns="http://www.w3.org/2000/svg" xmlns:xlink="http://www.w3.org/1999/xlink">
    <!-- Generator: Sketch 51.2 (57519) - http://www.bohemiancoding.com/sketch -->
    <title>Group 2 Copy</title>
    <desc>Created with Sketch.</desc>
    <defs></defs>
    <g id="Page-1" stroke="none" stroke-width="1" fill="none" fill-rule="evenodd">
        <g id="Landing" transform="translate(-763.000000, -189.000000)" fill="#FFFFFF" fill-rule="nonzero">
            <g id="Group-6" transform="translate(637.000000, 182.000000)">
                <g id="Group-3">
                    <g id="Group-2-Copy" transform="translate(126.000000, 7.000000)">
                        <g id="Group" transform="translate(0.000000, 7.000000)">
                            <path d="M12.7324497,14.8828125 C12.5219138,14.8828125 12.1008421,14.8828125 11.8903063,14.671875 C11.4692345,14.25 11.4692345,13.6171875 11.8903063,13.1953125 L17.3642385,7.7109375 L11.8903063,2.2265625 C11.4692345,1.8046875 11.4692345,1.171875 11.8903063,0.75 C12.311378,0.328125 12.9429855,0.328125 13.3640572,0.75 L19.6801329,7.078125 C20.1012046,7.5 20.1012046,8.1328125 19.6801329,8.5546875 L13.3640572,14.8828125 C13.3640572,14.8828125 12.9429855,14.8828125 12.7324497,14.8828125 Z" id="Shape"></path>
                            <path d="M17.9958461,8.5546875 L1.15297761,8.5546875 C0.521370039,8.5546875 0.100298327,8.1328125 0.100298327,7.5 C0.100298327,6.8671875 0.521370039,6.4453125 1.15297761,6.4453125 L17.9958461,6.4453125 C18.6274536,6.4453125 19.0485254,6.8671875 19.0485254,7.5 C19.0485254,8.1328125 18.6274536,8.5546875 17.9958461,8.5546875 Z" id="Shape"></path>
                        </g>
                        <path d="M25.4444444,28 L12.1111111,28 C11.4444444,28 11,27.6266667 11,27.0666667 C11,26.5066667 11.4444444,26.1333333 12.1111111,26.1333333 L25.4444444,26.1333333 C27.2222222,26.1333333 28.7777778,24.8266667 28.7777778,23.3333333 L28.7777778,4.66666667 C28.7777778,3.17333333 27.2222222,1.86666667 25.4444444,1.86666667 L12.1111111,1.86666667 C11.4444444,1.86666667 11,1.49333333 11,0.933333333 C11,0.373333333 11.4444444,0 12.1111111,0 L25.4444444,0 C28.5555556,0 31,2.05333333 31,4.66666667 L31,23.3333333 C31,25.9466667 28.5555556,28 25.4444444,28 Z" id="Shape"></path>
                    </g>
                </g>
            </g>
        </g>
    </g>
</svg>